<svg width="1281" height="1277" xmlns="http://www.w3.org/2000/svg" xmlns:xlink="http://www.w3.org/1999/xlink" xml:space="preserve" overflow="hidden"><defs><clipPath id="clip0"><rect x="1581" y="621" width="1281" height="1277"/></clipPath></defs><g clip-path="url(#clip0)" transform="translate(-1581 -621)"><path d="M2854.9 629.438C2832.62 607.123 2689.37 632.626 2570 664.505 2612.97 690.008 2657.54 725.074 2700.51 768.11 2745.08 812.74 2780.09 857.37 2805.56 902 2837.39 779.267 2878.77 651.753 2854.9 629.438Z" fill="#FFFFFF" fill-rule="evenodd"/><path d="M1969 1082.45 1914.92 1061.78C1892.65 1053.83 1868.79 1058.6 1851.3 1074.5L1598.39 1327.33C1557.03 1368.67 1595.21 1440.23 1652.47 1427.51L1864.02 1379.8C1881.52 1300.3 1910.15 1193.76 1969 1082.45Z" fill="#FFFFFF" fill-rule="evenodd"/><path d="M2390.13 1498C2283.81 1553.69 2182.24 1583.93 2099.72 1599.84L2050.52 1825.8C2037.82 1883.09 2107.65 1922.87 2150.5 1879.9L2402.83 1626.89C2418.7 1610.98 2425.05 1585.52 2415.53 1563.24L2390.13 1498Z" fill="#FFFFFF" fill-rule="evenodd"/><path d="M2484.17 693C2390.41 731.168 2283.93 796.37 2180.63 899.741 1991.51 1088.99 1935.89 1317.99 1920 1448.4L2018.53 1547C2148.85 1531.1 2379.28 1477.03 2568.4 1287.78 2671.7 1184.41 2736.86 1079.45 2775 985.619 2754.34 933.138 2713.02 871.115 2654.22 810.683 2597.01 755.022 2536.62 713.674 2484.17 693ZM2565.22 1036.51C2528.67 1073.09 2468.28 1073.09 2430.14 1036.51 2393.59 999.931 2393.59 939.499 2430.14 901.332 2466.69 864.754 2527.08 864.754 2565.22 901.332 2601.78 939.499 2601.78 999.931 2565.22 1036.51Z" fill="#FFFFFF" fill-rule="evenodd"/><path d="M1918.31 1548.79C1892.92 1523.34 1896.09 1480.4 1843.73 1532.89 1791.36 1585.37 1713.61 1704.66 1737.41 1730.11 1762.8 1755.55 1881.81 1676.03 1934.17 1623.54 1986.54 1569.47 1943.69 1572.65 1918.31 1548.79Z" fill="#FFFFFF" fill-rule="evenodd"/></g></svg>