<svg width="1281" height="1276" xmlns="http://www.w3.org/2000/svg" xmlns:xlink="http://www.w3.org/1999/xlink" xml:space="preserve" overflow="hidden"><defs><clipPath id="clip0"><rect x="1559" y="600" width="1281" height="1276"/></clipPath></defs><g clip-path="url(#clip0)" transform="translate(-1559 -600)"><path d="M2832.9 608.408C2810.62 586.172 2667.37 611.584 2548 643.35 2590.97 668.762 2635.54 703.703 2678.51 746.586 2723.08 791.058 2758.09 835.529 2783.56 880 2815.39 757.704 2856.77 630.643 2832.9 608.408Z" fill="#30CC9A" fill-rule="evenodd"/><path d="M1947 1061.45 1892.92 1040.78C1870.65 1032.83 1846.79 1037.6 1829.3 1053.5L1576.39 1306.33C1535.03 1347.67 1573.21 1419.23 1630.47 1406.51L1842.02 1358.8C1859.52 1279.3 1888.15 1172.76 1947 1061.45Z" fill="#30CC9A" fill-rule="evenodd"/><path d="M2368.13 1476C2261.81 1531.69 2160.24 1561.93 2077.72 1577.84L2028.52 1803.8C2015.82 1861.09 2085.65 1900.87 2128.5 1857.9L2380.83 1604.89C2396.7 1588.98 2403.05 1563.52 2393.53 1541.24L2368.13 1476Z" fill="#30CC9A" fill-rule="evenodd"/><path d="M2462.17 672C2368.41 710.123 2261.93 775.25 2158.63 878.499 1969.51 1067.53 1913.89 1296.26 1898 1426.52L1996.53 1525C2126.85 1509.12 2357.28 1455.11 2546.4 1266.08 2649.7 1162.83 2714.86 1057.99 2753 964.276 2732.34 911.857 2691.02 849.907 2632.22 789.546 2575.01 733.95 2514.62 692.65 2462.17 672ZM2543.22 1015.11C2506.67 1051.64 2446.28 1051.64 2408.14 1015.11 2371.59 978.572 2371.59 918.21 2408.14 880.088 2444.69 843.553 2505.08 843.553 2543.22 880.088 2579.78 918.21 2579.78 978.572 2543.22 1015.11Z" fill="#30CC9A" fill-rule="evenodd"/><path d="M1896.31 1526.79C1870.92 1501.34 1874.09 1458.4 1821.73 1510.89 1769.36 1563.37 1691.61 1682.66 1715.41 1708.11 1740.8 1733.55 1859.81 1654.03 1912.17 1601.54 1964.54 1547.47 1921.69 1550.65 1896.31 1526.79Z" fill="#30CC9A" fill-rule="evenodd"/></g></svg>